HIERARCHY
ROOT Hips
{
 OFFSET 0.000000 0.000000 0.000000
 CHANNELS 6 Xposition Yposition Zposition Yrotation Xrotation Zrotation
 JOINT Chest
 {
  OFFSET 0.000000 9.585900 0.002600
  CHANNELS 3 Yrotation Xrotation Zrotation
  JOINT Chest2
  {
   OFFSET 0.000000 9.601200 -0.005300
   CHANNELS 3 Yrotation Xrotation Zrotation
   JOINT Chest3
   {
    OFFSET 0.000000 9.561800 0.000000
    CHANNELS 3 Yrotation Xrotation Zrotation
    JOINT Chest4
    {
     OFFSET 0.000000 9.552100 0.000000
     CHANNELS 3 Yrotation Xrotation Zrotation
     JOINT Neck
     {
      OFFSET 0.000000 14.453000 0.000000
      CHANNELS 3 Yrotation Xrotation Zrotation
      JOINT Head
      {
       OFFSET 0.000000 8.936500 -0.011300
       CHANNELS 3 Yrotation Xrotation Zrotation
       End Site
       {
        OFFSET 0.000000 17.073600 -0.006000
       }
      }
     }
     JOINT RightCollar
     {
      OFFSET -2.921100 9.558500 0.000000
      CHANNELS 3 Yrotation Xrotation Zrotation
      JOINT RightShoulder
      {
       OFFSET -13.519700 0.000000 0.000000
       CHANNELS 3 Yrotation Xrotation Zrotation
       JOINT RightElbow
       {
        OFFSET 0.000000 -29.696600 0.000000
        CHANNELS 3 Yrotation Xrotation Zrotation
        JOINT RightWrist
        {
         OFFSET 0.000000 -24.004700 0.000000
         CHANNELS 3 Yrotation Xrotation Zrotation
         End Site
         {
          OFFSET 0.000000 -17.728500 0.000000
         }
        }
       }
      }
     }
     JOINT LeftCollar
     {
      OFFSET 2.921100 9.558500 0.000000
      CHANNELS 3 Yrotation Xrotation Zrotation
      JOINT LeftShoulder
      {
       OFFSET 13.519700 0.000000 0.000000
       CHANNELS 3 Yrotation Xrotation Zrotation
       JOINT LeftElbow
       {
        OFFSET 0.000000 -29.696600 0.000000
        CHANNELS 3 Yrotation Xrotation Zrotation
        JOINT LeftWrist
        {
         OFFSET 0.000000 -24.004700 0.000000
         CHANNELS 3 Yrotation Xrotation Zrotation
         End Site
         {
          OFFSET 0.000000 -17.728500 0.000000
         }
        }
       }
      }
     }
    }
   }
  }
 }
 JOINT RightHip
 {
  OFFSET -7.771700 -0.012900 -0.001300
  CHANNELS 3 Yrotation Xrotation Zrotation
  JOINT RightKnee
  {
   OFFSET 0.000000 -40.869800 0.001200
   CHANNELS 3 Yrotation Xrotation Zrotation
   JOINT RightAnkle
   {
    OFFSET 0.000000 -39.717900 0.002100
    CHANNELS 3 Yrotation Xrotation Zrotation
    JOINT RightToe
    {
     OFFSET 0.000000 -4.965400 11.033500
     CHANNELS 3 Yrotation Xrotation Zrotation
     End Site
     {
      OFFSET 0.000000 -1.423100 5.872300
     }
    }
   }
  }
 }
 JOINT LeftHip
 {
  OFFSET 7.771700 -0.012900 -0.001300
  CHANNELS 3 Yrotation Xrotation Zrotation
  JOINT LeftKnee
  {
   OFFSET 0.000000 -40.869800 0.001200
   CHANNELS 3 Yrotation Xrotation Zrotation
   JOINT LeftAnkle
   {
    OFFSET 0.000000 -39.717900 0.002100
    CHANNELS 3 Yrotation Xrotation Zrotation
    JOINT LeftToe
    {
     OFFSET 0.000000 -4.965400 11.033500
     CHANNELS 3 Yrotation Xrotation Zrotation
     End Site
     {
      OFFSET 0.000000 -1.423100 5.872300
     }
    }
   }
  }
 }
}
MOTION
Frames: 13
Frame Time: 0.008333
-21.066611 57.801743 75.907123 172.766078 -33.106388 -3.384500 3.234426 20.604563 4.834539 0.291566 2.717811 0.351385 0.477722 4.459746 0.579192 2.281044 17.684296 2.622477 -3.207044 13.824557 -2.011656 -5.040581 -10.255193 -2.553497 3.094686 -3.039632 -0.588404 10.188449 -15.391520 -19.411518 -175.853575 -80.194922 -148.575586 20.240641 -18.401279 -52.044004 -8.446970 -4.057958 -4.368300 -3.074477 -16.639691 9.038162 -145.884279 -66.963941 114.280460 -10.901440 -4.174445 17.109722 8.891749 -39.451973 1.755189 -4.515452 64.279853 -5.718982 5.868917 14.145586 9.655425 -0.690297 -7.342875 -0.263335 -9.133676 -44.433816 8.960180 26.358623 61.185761 24.207417 -10.569703 37.220451 2.431266 0.838518 -17.817420 -6.910063
-21.071193 57.791401 75.927390 172.767335 -33.145488 -3.383458 3.256435 20.556579 4.853290 0.292953 2.715908 0.352149 0.487581 4.434863 0.582925 2.261214 17.748980 2.622775 -3.096134 13.796301 -1.996264 -5.048453 -10.129101 -2.549620 3.107528 -3.083338 -0.597355 10.154995 -15.359157 -19.372269 -176.246688 -80.136956 -148.245634 20.261137 -18.420155 -52.050577 -8.404365 -4.111342 -4.363651 -3.033856 -16.602114 9.000481 -145.949515 -66.935868 114.356201 -10.909520 -4.185761 17.025313 8.898927 -39.420558 1.735245 -4.536801 64.260034 -5.724307 5.883213 14.164976 9.658293 -0.689081 -7.334439 -0.264200 -9.164271 -44.395539 8.968034 26.388735 61.159982 24.227530 -10.581280 37.234291 2.416579 0.840272 -17.811813 -6.916470
-21.077184 57.788352 75.936549 172.794710 -33.259081 -3.377991 3.257811 20.583903 4.858529 0.294190 2.713735 0.352706 0.489623 4.431473 0.583904 2.281733 17.718105 2.631865 -3.064806 13.858603 -1.988489 -5.022195 -10.025240 -2.547592 3.060381 -2.999097 -0.592595 10.142455 -15.342801 -19.356702 -176.634414 -80.032060 -147.941956 20.280854 -18.434959 -52.059827 -8.436772 -4.032677 -4.373963 -2.951525 -16.626662 8.969587 -146.014654 -66.896358 114.429484 -10.908948 -4.204558 16.939249 8.925757 -39.312952 1.659359 -4.521139 64.262252 -5.640276 5.906134 14.190162 9.643269 -0.703220 -7.351165 -0.266970 -9.197535 -44.281603 8.938690 26.465200 61.127501 24.282649 -10.612525 37.277062 2.398617 0.848531 -17.839154 -6.925728
-21.081307 57.784139 75.948680 172.815404 -33.353956 -3.380640 3.269182 20.591808 4.876109 0.295498 2.711661 0.353042 0.491776 4.428262 0.584459 2.302898 17.686133 2.638709 -3.055490 13.931725 -1.982150 -4.984180 -9.935577 -2.544240 3.030473 -2.968873 -0.589046 10.112440 -15.381913 -19.282482 -177.260770 -80.018297 -147.379349 20.291863 -18.446346 -52.066444 -8.471818 -3.953605 -4.381979 -2.859468 -16.653373 8.937722 -146.092272 -66.851084 114.516053 -10.904615 -4.227636 16.851990 8.929170 -39.219957 1.625697 -4.514824 64.252045 -5.599539 5.916597 14.203857 9.636813 -0.702015 -7.349944 -0.268598 -9.224789 -44.185525 8.922409 26.512315 61.100599 24.320741 -10.636650 37.299157 2.378275 0.861172 -17.853197 -6.934451
-21.084443 57.779857 75.961905 172.837143 -33.443445 -3.390109 3.281691 20.593406 4.898097 0.296826 2.709728 0.353347 0.493926 4.425214 0.584890 2.312574 17.679932 2.642551 -3.036725 13.979383 -1.974871 -4.951406 -9.846988 -2.538860 3.013070 -2.967950 -0.582874 10.063244 -15.380832 -19.214318 -177.889162 -79.948776 -146.827132 20.291831 -18.451637 -52.067727 -8.434657 -3.997689 -4.370571 -2.804108 -16.580424 8.878701 -146.180052 -66.803483 114.620577 -10.895814 -4.261270 16.756053 8.921671 -39.133082 1.609964 -4.497571 64.241849 -5.560457 5.912775 14.216125 9.629860 -0.697766 -7.346456 -0.266313 -9.235108 -44.095686 8.903058 26.520309 61.078487 24.342928 -10.678262 37.308307 2.326036 0.888394 -17.855300 -6.930041
-21.088507 57.770904 75.982911 172.875766 -33.478977 -3.410778 3.268716 20.562966 4.911614 0.304107 2.683625 0.355326 0.496492 4.421957 0.585351 2.324112 17.673180 2.646517 -3.034642 14.042813 -1.967692 -4.907874 -9.768941 -2.534902 2.988794 -2.949413 -0.570435 10.014365 -15.378476 -19.151928 -178.589582 -79.849486 -146.220952 20.292399 -18.443926 -52.070447 -8.424082 -4.002074 -4.362633 -2.714678 -16.545920 8.822805 -146.284426 -66.763328 114.739606 -10.866959 -4.313299 16.659876 8.892310 -39.098496 1.599859 -4.483177 64.223320 -5.540518 5.900133 14.225440 9.630493 -0.685611 -7.331618 -0.266706 -9.316612 -44.051768 8.923669 26.522618 61.034737 24.347241 -10.756836 37.348949 2.211772 0.939898 -17.864494 -6.907560
-21.094332 57.767099 75.996296 172.890607 -33.572791 -3.406666 3.274594 20.561642 4.916579 0.305883 2.681121 0.355348 0.499396 4.418094 0.585538 2.337096 17.665244 2.649539 -3.019442 14.096178 -1.961087 -4.920826 -9.692069 -2.527337 2.962827 -2.930392 -0.553268 9.959933 -15.374862 -19.082264 -179.459604 -79.738481 -145.458909 20.296564 -18.420998 -52.077102 -8.417742 -3.987881 -4.355100 -2.606636 -16.525183 8.765527 -146.430788 -66.751182 114.889391 -10.810877 -4.392101 16.589398 8.905994 -39.006067 1.560319 -4.460677 64.210496 -5.484296 5.899285 14.244436 9.618717 -0.677026 -7.331816 -0.263477 -9.357059 -43.948377 8.916265 26.541694 61.005797 24.339858 -10.743937 37.368913 2.208262 0.949860 -17.875926 -6.922413
-21.105614 57.761653 76.011599 172.891366 -33.654243 -3.371577 3.284154 20.521491 4.898149 0.301882 2.702152 0.353525 0.502193 4.413500 0.585458 2.349564 17.656104 2.651853 -2.991525 14.139194 -1.955439 -4.891376 -9.561714 -2.522234 2.938905 -2.913347 -0.534149 9.894755 -15.368517 -19.003613 179.522961 -79.621862 -144.563808 20.290743 -18.389323 -52.078621 -8.409881 -3.975455 -4.345990 -2.482895 -16.498769 8.704040 -146.633133 -66.769417 115.082493 -10.739916 -4.500697 16.571592 8.999829 -38.932594 1.433194 -4.422844 64.207442 -5.346435 5.875781 14.277437 9.577111 -0.654917 -7.340350 -0.257075 -9.423012 -43.848098 8.902393 26.584784 60.958146 24.326698 -10.714323 37.406323 2.205405 0.942342 -17.885205 -6.937650
-21.119601 57.754273 76.029769 172.917428 -33.718764 -3.347728 3.267027 20.488452 4.873056 0.291492 2.750607 0.350015 0.516978 4.356595 0.587995 2.360824 17.645998 2.654708 -2.981031 14.198699 -1.951650 -4.854371 -9.439692 -2.521929 2.916713 -2.897657 -0.514402 9.816381 -15.360706 -18.918653 178.432183 -79.502264 -143.607171 20.272428 -18.356399 -52.071229 -8.402282 -3.965476 -4.336042 -2.345726 -16.468815 8.637610 -146.887553 -66.805780 115.313547 -10.653665 -4.641030 16.628197 9.086674 -38.877460 1.299002 -4.400091 64.210802 -5.227540 5.850791 14.306676 9.543288 -0.632931 -7.349259 -0.248239 -9.479833 -43.773711 8.870025 26.568069 60.912745 24.284879 -10.716542 37.470622 2.162264 0.960913 -17.906510 -6.942470
-21.134866 57.746978 76.047905 172.941850 -33.790076 -3.329227 3.255462 20.459775 4.856970 0.298406 2.720889 0.351707 0.512617 4.376444 0.587268 2.369704 17.634591 2.658511 -2.973434 14.261297 -1.949923 -4.840363 -9.323556 -2.523059 2.890531 -2.879254 -0.495664 9.729916 -15.355356 -18.830264 177.277303 -79.376528 -142.596343 20.252327 -18.327640 -52.063059 -8.391097 -3.957408 -4.326015 -2.204163 -16.436513 8.565989 -147.187919 -66.855669 115.582880 -10.543400 -4.828809 16.763586 9.188141 -38.817506 1.156181 -4.389976 64.215959 -5.102563 5.834128 14.335751 9.514669 -0.610412 -7.359635 -0.245764 -9.522404 -43.698582 8.836215 26.544160 60.876766 24.246048 -10.729151 37.530354 2.115867 0.983401 -17.927579 -6.945381
-21.152036 57.739376 76.066380 172.969188 -33.863907 -3.316525 3.243065 20.430607 4.847173 0.305020 2.690507 0.353858 0.507483 4.395333 0.586152 2.376217 17.621641 2.662558 -2.967971 14.328038 -1.949642 -4.829817 -9.199670 -2.526235 2.862128 -2.852597 -0.481170 9.635006 -15.357927 -18.734796 176.035645 -79.247119 -141.512013 20.230455 -18.310960 -52.056622 -8.373405 -3.949058 -4.315969 -2.062216 -16.402928 8.488863 -147.528953 -66.918048 115.895156 -10.417171 -5.074260 16.967929 9.305488 -38.760260 0.992158 -4.386877 64.227169 -4.951148 5.819956 14.378849 9.468630 -0.583800 -7.383411 -0.238224 -9.536119 -43.625419 8.791398 26.478864 60.846389 24.189293 -10.768625 37.590086 2.041414 1.016842 -17.956374 -6.933496
-21.182712 57.730580 76.083867 172.977066 -33.936485 -3.226832 3.218416 20.399836 4.765584 0.305738 2.685739 0.353990 0.498170 4.448620 0.582577 2.394359 17.547256 2.666961 -2.963624 14.399738 -1.950056 -4.821107 -9.066640 -2.530304 2.839171 -2.817143 -0.470347 9.525824 -15.369618 -18.630947 174.767653 -79.119057 -140.416197 20.205525 -18.302031 -52.050597 -8.348694 -3.939184 -4.304457 -1.923045 -16.370296 8.405484 -147.898064 -66.982882 116.243140 -10.284164 -5.366334 17.227683 9.493026 -38.803657 0.766565 -4.460434 64.380550 -4.844829 5.585607 14.638747 9.223477 -0.340120 -7.617995 -0.120290 -9.469908 -43.566003 8.655746 26.414334 60.817754 24.132082 -10.854125 37.649891 1.926478 1.087069 -17.980498 -6.907271
-21.190654 57.718705 76.111495 172.962518 -33.966886 -3.279645 3.262895 20.314850 4.844784 0.298059 2.738984 0.349295 0.500167 4.446012 0.583349 2.413767 17.469146 2.670653 -2.960805 14.477237 -1.950694 -4.815210 -8.922718 -2.534310 2.821334 -2.775798 -0.459766 9.400303 -15.385207 -18.522217 173.582721 -78.995591 -139.418253 20.183094 -18.290465 -52.048617 -8.320026 -3.928418 -4.290804 -1.790729 -16.337985 8.317464 -148.290113 -67.036490 116.625107 -10.147329 -5.684993 17.523704 9.563956 -38.792345 0.742740 -4.470765 64.335077 -4.682399 5.395611 14.753556 9.028695 -0.173986 -7.642518 -0.044675 -9.596090 -43.517794 8.765503 26.424675 60.781014 24.111651 -10.799011 37.683498 1.945342 1.057784 -17.979008 -6.929390
